<?xml version="1.0" standalone="no"?><!DOCTYPE svg PUBLIC "-//W3C//DTD SVG 1.1//EN" "http://www.w3.org/Graphics/SVG/1.1/DTD/svg11.dtd"><svg t="1620208102360" class="icon" viewBox="0 0 1024 1024" version="1.1" xmlns="http://www.w3.org/2000/svg" p-id="897" xmlns:xlink="http://www.w3.org/1999/xlink" width="128" height="128"><defs><style type="text/css"></style></defs><path d="M45.119595 282.097789A45.092581 45.092581 0 0 1 0.027014 236.789969V45.119594A45.092581 45.092581 0 0 1 45.119595 0.027013H236.78997a45.146391 45.146391 0 0 1 0 90.238972H90.265986V236.789969a45.092581 45.092581 0 0 1-45.146391 45.30782z" fill="#192E7A" p-id="898"></path><path d="M236.78997 1023.972987H45.119595A45.092581 45.092581 0 0 1 0.027014 978.880406v-191.831804a45.146391 45.146391 0 1 1 90.238972 0v146.685413H236.78997a45.146391 45.146391 0 0 1 0 90.238972z" fill="#040000" p-id="899"></path><path d="M978.880408 1023.972987h-191.831804a45.146391 45.146391 0 1 1 0-90.238972h146.685413v-146.685413a45.146391 45.146391 0 1 1 90.238972 0v191.831804a45.092581 45.092581 0 0 1-45.092581 45.092581zM978.880408 282.097789a45.146391 45.146391 0 0 1-45.146391-45.30782V90.265985h-146.685413a45.146391 45.146391 0 1 1 0-90.238972h191.831804a45.092581 45.092581 0 0 1 45.092581 45.092581V236.789969a45.092581 45.092581 0 0 1-45.092581 45.30782z" fill="#192E7A" p-id="900"></path><path d="M797.433888 387.457304c64.571715 36.590639 100.355207 85.288474 100.947115 137.591563 0 113.000502-169.715992 201.140893-385.977428 201.140894a698.827389 698.827389 0 0 1-71.136507-3.390016 28.142506 28.142506 0 0 1 5.380977-56.069772 588.086897 588.086897 0 0 0 66.024578 3.174776c194.199434 0 329.746226-76.517483 329.530987-145.28636 0-30.832994-25.452018-62.042656-71.351745-87.656103a28.196316 28.196316 0 0 1 27.604408-49.128314z" fill="#27A665" p-id="901"></path><path d="M511.973097 138.371912c113.000502 0 201.140893 169.769801 201.140893 386.031238a698.827389 698.827389 0 0 1-3.174776 71.190316 28.088696 28.088696 0 0 1-30.510136 25.452018 27.819647 27.819647 0 0 1-17.272934-8.125274 28.142506 28.142506 0 0 1-8.125274-22.438671 601.754577 601.754577 0 0 0 3.174776-66.024579c0-194.199434-76.947961-329.369558-145.286359-329.530987-30.779184 0-61.988847 25.398208-87.656104 71.351745a28.142506 28.142506 0 0 1-37.666834 12.752914l-1.883341-1.022385a28.142506 28.142506 0 0 1-10.761953-38.204932c37.451595-65.647911 86.364669-101.000925 138.022042-101.431403z" fill="#27A665" p-id="902"></path><path d="M226.942783 661.887094a254.789227 254.789227 0 0 1-56.876919-42.133044 136.03108 136.03108 0 0 1-44.124005-95.404709c0-113.000502 169.769801-201.140893 386.031238-201.140894a698.827389 698.827389 0 0 1 71.190316 3.174776 28.142506 28.142506 0 0 1-5.380977 56.069773 588.732614 588.732614 0 0 0-66.024579-3.174776c-194.199434 0-329.369558 76.894151-329.584796 145.28636 0 30.617755 25.452018 62.042656 71.405555 87.656103a28.196316 28.196316 0 0 1-27.550599 48.966884z" fill="#27A665" p-id="903"></path><path d="M512.403575 910.811056a134.524407 134.524407 0 0 1-95.458519-44.124005c-63.764569-63.764569-106.54333-191.616565-106.543331-341.853423a698.881198 698.881198 0 0 1 3.228586-71.190316 28.142506 28.142506 0 1 1 56.015963 5.380977 601.108859 601.108859 0 0 0-3.174776 66.024578c0 194.199434 76.517483 329.746226 145.286359 329.530987 30.779184 0 61.988847-25.452018 87.656104-71.351745a28.142506 28.142506 0 0 1 37.666834-13.50625 23.192008 23.192008 0 0 1 2.529059 1.399053 28.088696 28.088696 0 0 1 10.761952 38.151122c-37.666834 65.594101-86.09562 101.000925-137.968231 101.377593z" fill="#27A665" p-id="904"></path><path d="M797.433888 387.457304c64.571715 36.590639 100.355207 85.288474 100.947115 137.591563 0 113.000502-169.715992 201.140893-385.977428 201.140894a698.827389 698.827389 0 0 1-71.136507-3.390016 28.142506 28.142506 0 0 1 5.380977-56.069772 588.086897 588.086897 0 0 0 66.024578 3.174776c194.199434 0 329.746226-76.517483 329.530987-145.28636 0-30.832994-25.452018-62.042656-71.351745-87.656103a28.196316 28.196316 0 0 1 27.604408-49.128314z" fill="#27A665" p-id="905"></path><path d="M511.973097 138.371912c113.000502 0 201.140893 169.769801 201.140893 386.031238a698.827389 698.827389 0 0 1-3.174776 71.190316 28.088696 28.088696 0 0 1-30.510136 25.452018 27.819647 27.819647 0 0 1-17.272934-8.125274 28.142506 28.142506 0 0 1-8.125274-22.438671 601.754577 601.754577 0 0 0 3.174776-66.024579c0-194.199434-76.947961-329.369558-145.286359-329.530987-30.779184 0-61.988847 25.398208-87.656104 71.351745a28.142506 28.142506 0 0 1-37.666834 12.752914l-1.883341-1.022385a28.142506 28.142506 0 0 1-10.761953-38.204932c37.451595-65.647911 86.364669-101.000925 138.022042-101.431403z" fill="#27A665" p-id="906"></path><path d="M226.942783 661.887094a254.789227 254.789227 0 0 1-56.876919-42.133044 136.03108 136.03108 0 0 1-44.124005-95.404709c0-113.000502 169.769801-201.140893 386.031238-201.140894a698.827389 698.827389 0 0 1 71.190316 3.174776 28.142506 28.142506 0 0 1-5.380977 56.069773 588.732614 588.732614 0 0 0-66.024579-3.174776c-194.199434 0-329.369558 76.894151-329.584796 145.28636 0 30.617755 25.452018 62.042656 71.405555 87.656103a28.196316 28.196316 0 0 1-27.550599 48.966884z" fill="#27A665" p-id="907"></path><path d="M512.403575 910.811056a134.524407 134.524407 0 0 1-95.458519-44.124005c-63.764569-63.764569-106.54333-191.616565-106.543331-341.853423a698.881198 698.881198 0 0 1 3.228586-71.190316 28.142506 28.142506 0 1 1 56.015963 5.380977 601.108859 601.108859 0 0 0-3.174776 66.024578c0 194.199434 76.517483 329.746226 145.286359 329.530987 30.779184 0 61.988847-25.452018 87.656104-71.351745a28.142506 28.142506 0 0 1 37.666834-13.50625 23.192008 23.192008 0 0 1 2.529059 1.399053 28.088696 28.088696 0 0 1 10.761952 38.151122c-37.666834 65.594101-86.09562 101.000925-137.968231 101.377593zM475.00579 565.029521c-19.317705-19.263895-29.003462-40.195893-29.003463-43.04781s11.138621-25.129159 29.003463-43.04781 40.680181-29.218701 43.639717-29.003462a148.783994 148.783994 0 0 1 42.563522 29.003462c15.497212 15.497212 28.788223 40.464942 28.788224 43.04781s-13.936729 24.91392-30.510136 41.487327-38.420171 30.402516-41.003039 30.510136-24.160583-9.578138-43.478288-28.949653z" fill="#27A665" p-id="908"></path></svg>