<?xml version="1.0" standalone="no"?><!DOCTYPE svg PUBLIC "-//W3C//DTD SVG 1.1//EN" "http://www.w3.org/Graphics/SVG/1.1/DTD/svg11.dtd"><svg t="1620208130526" class="icon" viewBox="0 0 1024 1024" version="1.1" xmlns="http://www.w3.org/2000/svg" p-id="1060" xmlns:xlink="http://www.w3.org/1999/xlink" width="128" height="128"><defs><style type="text/css"></style></defs><path d="M45.119595 282.097789A45.092581 45.092581 0 0 1 0.027014 236.789969V45.119594A45.092581 45.092581 0 0 1 45.119595 0.027013H236.78997a45.146391 45.146391 0 0 1 0 90.238972H90.265986V236.789969a45.092581 45.092581 0 0 1-45.146391 45.30782z" fill="#192E7A" p-id="1061"></path><path d="M236.78997 1023.972987H45.119595A45.092581 45.092581 0 0 1 0.027014 978.880406v-191.831804a45.146391 45.146391 0 1 1 90.238972 0v146.685413H236.78997a45.146391 45.146391 0 0 1 0 90.238972z" fill="#040000" p-id="1062"></path><path d="M978.880408 1023.972987h-191.831804a45.146391 45.146391 0 1 1 0-90.238972h146.685413v-146.685413a45.146391 45.146391 0 1 1 90.238972 0v191.831804a45.092581 45.092581 0 0 1-45.092581 45.092581zM978.880408 282.097789a45.146391 45.146391 0 0 1-45.146391-45.30782V90.265985h-146.685413a45.146391 45.146391 0 1 1 0-90.238972h191.831804a45.092581 45.092581 0 0 1 45.092581 45.092581V236.789969a45.092581 45.092581 0 0 1-45.092581 45.30782z" fill="#192E7A" p-id="1063"></path><path d="M735.391231 347.907129l-54.34786-144.425404a26.582023 26.582023 0 0 0-24.91392-17.272933H367.386264a26.904881 26.904881 0 0 0-24.96773 17.326743L287.263527 350.597617a33.200624 33.200624 0 0 0-2.798107 13.291011v440.486718a33.308243 33.308243 0 0 0 33.039194 33.415862h388.667916a33.254433 33.254433 0 0 0 33.254434-33.254433V364.050057a32.770146 32.770146 0 0 0-4.035733-16.142928z m-33.792531 452.002006H322.455112V368.785316h379.143588z" fill="#27A665" p-id="1064"></path><path d="M368.892937 417.96744m14.259588 0l262.107354 0q14.259587 0 14.259587 14.259587l0 26.312974q0 14.259587-14.259587 14.259587l-262.107354 0q-14.259587 0-14.259588-14.259587l0-26.312974q0-14.259587 14.259588-14.259587Z" fill="#27A665" p-id="1065"></path><path d="M644.076064 491.094907H384.390149a14.259587 14.259587 0 0 0-14.259587 14.259587v12.161007a14.259587 14.259587 0 0 0 14.259587 14.259587h259.685915a14.259587 14.259587 0 0 0 14.259587-14.259587v-12.161007a14.259587 14.259587 0 0 0-14.259587-14.259587z m4.735259 26.420594a4.735259 4.735259 0 0 1-4.735259 4.789069H384.390149a4.735259 4.735259 0 0 1-4.735259-4.789069v-12.161007a4.735259 4.735259 0 0 1 4.735259-4.735259h259.685915a4.735259 4.735259 0 0 1 4.735259 4.735259z" fill="#27A665" p-id="1066"></path></svg>