<?xml version="1.0" standalone="no"?><!DOCTYPE svg PUBLIC "-//W3C//DTD SVG 1.1//EN" "http://www.w3.org/Graphics/SVG/1.1/DTD/svg11.dtd"><svg t="1620143008994" class="icon" viewBox="0 0 1024 1024" version="1.1" xmlns="http://www.w3.org/2000/svg" p-id="10071" xmlns:xlink="http://www.w3.org/1999/xlink" width="128" height="128"><defs><style type="text/css"></style></defs><path d="M992.162909 991.697455c-1.605818-4.887273-1.605818-4.887273-2.862545-7.168a47.313455 47.313455 0 0 0-3.956364-5.864728 204.334545 204.334545 0 0 0-9.355636-11.054545 1384.029091 1384.029091 0 0 0-31.301819-33.419637 10983.168 10983.168 0 0 0-95.58109-97.792 10916.538182 10916.538182 0 0 1-95.045819-97.28 1344.930909 1344.930909 0 0 1-30.091636-32.116363 165.934545 165.934545 0 0 1-6.981818-8.168727c0.861091 1.605818 0.861091 1.605818 2.234182 5.585454 2.094545 7.493818 2.094545 7.493818-6.981819 24.762182 82.245818-79.266909 129.722182-189.207273 129.722182-306.781091C841.960727 189.114182 656.174545 0 426.961455 0 197.771636 0 11.962182 189.114182 11.962182 422.4S197.771636 844.8 426.961455 844.8c5.026909 0 10.24-0.232727 16.011636-0.698182 4.142545-0.302545 7.749818-0.651636 14.312727-1.326545 13.312-1.373091 18.152727-1.768727 23.738182-1.768728 9.518545 0 24.576-3.351273 47.010909-9.56509l8.075636-2.304a1328.477091 1328.477091 0 0 0 36.77091-11.124364c13.242182-4.258909 20.596364-18.618182 16.407272-32.116364-4.189091-13.498182-18.315636-20.945455-31.557818-16.709818l-10.589091 3.328a1280.884364 1280.884364 0 0 1-32.349091 9.518546c-17.221818 4.770909-30.673455 7.773091-33.745454 7.77309-7.959273 0-13.684364 0.465455-28.834909 2.024728-6.167273 0.651636-9.425455 0.954182-13.032728 1.233454a158.999273 158.999273 0 0 1-12.218181 0.535273c-201.402182 0-364.683636-166.190545-364.683637-371.2S225.559273 51.2 426.961455 51.2c201.425455 0 364.683636 166.190545 364.683636 371.2 0 103.377455-41.658182 199.912727-113.989818 269.591273-9.239273 17.570909-9.239273 17.570909-7.051637 25.646545 1.605818 4.654545 1.605818 4.654545 2.839273 6.912 1.093818 1.954909 2.373818 3.770182 3.956364 5.818182 2.210909 2.885818 5.282909 6.516364 9.355636 11.077818 7.144727 7.982545 17.547636 19.083636 31.325091 33.442909 21.550545 22.481455 43.403636 44.776727 95.464727 97.722182a11009.326545 11009.326545 0 0 1 95.138909 97.349818c13.405091 13.963636 23.458909 24.669091 30.091637 32.116364 3.304727 3.677091 5.655273 6.469818 6.935272 8.122182-0.930909-1.768727-0.930909-1.768727-2.327272-5.957818-2.071273-8.075636-2.071273-8.075636 8.098909-25.390546a25.925818 25.925818 0 0 0-2.955637 36.072727 24.855273 24.855273 0 0 0 35.444364 3.025455c10.356364-17.617455 10.356364-17.617455 8.192-26.251636z" p-id="10072"></path><path d="M649.146182 454.516364c7.936 0 14.382545-10.426182 14.382545-23.272728s-6.446545-23.272727-14.382545-23.272727H189.160727c-7.912727 0-14.359273 10.426182-14.359272 23.272727s6.423273 23.272727 14.359272 23.272728h459.985455z m-242.967273 162.373818c0 6.423273 10.402909 11.636364 23.272727 11.636363 12.846545 0 23.272727-5.213091 23.272728-11.636363v-372.363637c0-6.423273-10.426182-11.636364-23.272728-11.636363-12.869818 0-23.272727 5.213091-23.272727 11.636363v372.363637z" p-id="10073"></path></svg>