<?xml version="1.0" standalone="no"?><!DOCTYPE svg PUBLIC "-//W3C//DTD SVG 1.1//EN" "http://www.w3.org/Graphics/SVG/1.1/DTD/svg11.dtd"><svg t="1620133609142" class="icon" viewBox="0 0 1024 1024" version="1.1" xmlns="http://www.w3.org/2000/svg" p-id="45515" xmlns:xlink="http://www.w3.org/1999/xlink" width="128" height="128"><defs><style type="text/css"></style></defs><path d="M751.4368 824.64H272.5632A112.64 112.64 0 0 1 160 712.0896V361.2032a112.64 112.64 0 0 1 112.5632-112.5632h478.8736A112.64 112.64 0 0 1 864 361.2032v350.8864a112.64 112.64 0 0 1-112.5632 112.5504z m-478.8736-537.6A74.24 74.24 0 0 0 198.4 361.2032v350.8864a74.24 74.24 0 0 0 74.1632 74.1504h478.8736A74.24 74.24 0 0 0 825.6 712.0896V361.2032a74.24 74.24 0 0 0-74.1632-74.1632z" p-id="45516"></path><path d="M265.6384 360.0256m64.9856 0l362.752 0q64.9856 0 64.9856 64.9856l0 221.9776q0 64.9856-64.9856 64.9856l-362.752 0q-64.9856 0-64.9856-64.9856l0-221.9776q0-64.9856 64.9856-64.9856Z" fill="#1273E1" p-id="45517" data-spm-anchor-id="a313x.7781069.0.i90" class=""></path><path d="M558.7456 516.48l-54.0032-31.1808a26.8032 26.8032 0 0 0-40.2176 23.2192V570.88a26.8032 26.8032 0 0 0 40.2176 23.2192l54.0032-31.1808a26.8032 26.8032 0 0 0 0-46.4384z" fill="#17abe3" p-id="45518" data-spm-anchor-id="a313x.7781069.0.i89" class=""></path><path d="M481.28 286.8352a19.1104 19.1104 0 0 1-13.568-5.6192l-117.9904-117.9904a19.2 19.2 0 0 1 27.1488-27.1616l117.9904 118.0032a19.2 19.2 0 0 1-13.5808 32.768zM542.72 286.8352a19.2 19.2 0 0 1-13.5808-32.768l117.9904-118.0032a19.2 19.2 0 0 1 27.1488 27.1616l-118.0416 117.9904a19.1104 19.1104 0 0 1-13.5168 5.6192z" p-id="45519"></path></svg>