<?xml version="1.0" standalone="no"?><!DOCTYPE svg PUBLIC "-//W3C//DTD SVG 1.1//EN" "http://www.w3.org/Graphics/SVG/1.1/DTD/svg11.dtd"><svg t="1620133792495" class="icon" viewBox="0 0 1850 1024" version="1.1" xmlns="http://www.w3.org/2000/svg" p-id="48827" xmlns:xlink="http://www.w3.org/1999/xlink" width="231.25" height="128"><defs><style type="text/css"></style></defs><path d="M797.976147 731.98699a55.511384 55.511384 0 1 0 27.755693-48.132997 55.511384 55.511384 0 0 0-27.755693 48.132997z m24.656307 260.556559a30.924467 30.924467 0 1 0 15.404409-26.923021 30.924467 30.924467 0 0 0-15.520058 26.923021zM135.424648 24.656306A24.656306 24.656306 0 1 0 160.080954 0a24.656306 24.656306 0 0 0-24.656306 24.656306z m-6.245031 968.257319a30.924467 30.924467 0 1 0 30.901337-30.924467 30.901337 30.901337 0 0 0-30.901337 30.924467z m129.896639 0a30.924467 30.924467 0 1 0 15.404409-26.923021 31.016986 31.016986 0 0 0-15.427539 26.923021z m144.630285 0a30.924467 30.924467 0 1 0 30.924467-30.924467 30.924467 30.924467 0 0 0-30.924467 30.924467z m140.212505 0a30.924467 30.924467 0 1 0 30.924467-30.924467 30.924467 30.924467 0 0 0-30.924467 30.924467z m135.794723 0a30.924467 30.924467 0 1 0 15.40441-26.923021 31.016986 31.016986 0 0 0-15.40441 26.923021z m131.400073-122.58764a42.697506 42.697506 0 1 0 42.674376-42.674377 42.674377 42.674377 0 0 0-42.674376 42.697507z m-136.465486-542.808818a36.429346 36.429346 0 1 0 18.203108-31.54897 36.406216 36.406216 0 0 0-18.272498 31.572099z m-136.1648 0a36.429346 36.429346 0 1 0 18.203108-31.5721 36.406216 36.406216 0 0 0-18.272497 31.595229z m-414.762559 0a36.452476 36.452476 0 1 0 18.226238-31.5721 36.383086 36.383086 0 0 0-18.295627 31.595229z m129.919769 0a36.429346 36.429346 0 1 0 18.203108-31.5721 36.359957 36.359957 0 0 0-18.272497 31.595229z m144.630286 0a36.429346 36.429346 0 1 0 18.064329-31.525841 36.406216 36.406216 0 0 0-18.133719 31.54897z m418.787134 0a36.452476 36.452476 0 1 0 18.226238-31.5721 36.383086 36.383086 0 0 0-18.295627 31.595229zM122.58764 450.081677a37.562703 37.562703 0 1 0 18.781352-32.520419A37.562703 37.562703 0 0 0 122.58764 450.081677z m0 136.465486a37.562703 37.562703 0 1 0 18.781352-32.520419A37.562703 37.562703 0 0 0 122.58764 586.616552z m-0.717022 145.370437a37.539574 37.539574 0 1 0 18.758222-32.520419 37.493314 37.493314 0 0 0-18.804481 32.589809z m0.717022 138.362125a37.562703 37.562703 0 1 0 18.781352-32.38164A37.562703 37.562703 0 0 0 122.58764 870.349115z m7.378388-647.332128a30.068666 30.068666 0 1 0 30.068667-30.184315 30.068666 30.068666 0 0 0-30.114926 30.253704z m0-102.672931a30.068666 30.068666 0 1 0 30.068667-30.184315 30.068666 30.068666 0 0 0-30.114926 30.253704z m117.383448 750.005059a42.697506 42.697506 0 1 0 42.697506-42.674376 42.674377 42.674377 0 0 0-42.743766 42.743766z m-7.355258-138.362125a50.052765 50.052765 0 1 0 50.052764-50.052764 50.052765 50.052765 0 0 0-50.099024 50.122154z m0-145.370437a50.052765 50.052765 0 1 0 50.052764-50.052765 50.052765 50.052765 0 0 0-50.099024 50.122154z m151.985543 283.732562a42.697506 42.697506 0 1 0 42.697507-42.674376 42.674377 42.674377 0 0 0-42.743766 42.743766z m-7.355258-138.362125a50.052765 50.052765 0 1 0 50.052765-50.052764 50.052765 50.052765 0 0 0-50.099024 50.122154z m0-145.370437a50.052765 50.052765 0 1 0 50.052765-50.052765 50.052765 50.052765 0 0 0-50.099024 50.122154z m147.567763 283.732562a42.697506 42.697506 0 1 0 42.697506-42.674376 42.674377 42.674377 0 0 0-42.743765 42.743766z m-7.355258-138.362125a50.052765 50.052765 0 1 0 50.052764-50.052764 50.052765 50.052765 0 0 0-50.099024 50.122154z m0-145.370437a50.052765 50.052765 0 1 0 50.052764-50.052765 50.052765 50.052765 0 0 0-50.099024 50.122154z m143.149982 283.732562a42.697506 42.697506 0 1 0 42.697506-42.674376 42.697506 42.697506 0 0 0-42.743766 42.743766z m-7.355259-138.362125a50.052765 50.052765 0 1 0 24.956993-43.530177 50.075894 50.075894 0 0 0-25.003252 43.599567z m0-145.370437a50.052765 50.052765 0 1 0 24.956993-43.530177 50.075894 50.075894 0 0 0-25.003252 43.599566z m-415.456451-136.465486a44.894832 44.894832 0 1 0 22.389592-39.066137 44.871702 44.871702 0 0 0-22.389592 39.066137z m144.630286 0a44.894832 44.894832 0 1 0 44.894832-44.894832 44.894832 44.894832 0 0 0-44.964222 44.894832z m140.212504 0a44.894832 44.894832 0 1 0 22.435851-38.881099 44.894832 44.894832 0 0 0-22.50524 38.881099z m135.794724 0a44.894832 44.894832 0 1 0 22.389591-39.066137 44.917962 44.917962 0 0 0-22.458981 39.066137z m142.779906 0a44.917962 44.917962 0 1 0 22.458981-38.881099 44.917962 44.917962 0 0 0-22.528371 38.881099z m-10.662812 136.465486a55.511384 55.511384 0 1 0 27.755692-48.132996A55.511384 55.511384 0 0 0 797.976147 586.616552zM0.439465 327.494037a32.381641 32.381641 0 1 0 32.381641-32.381641A32.381641 32.381641 0 0 0 0.370076 327.540296zM6.938923 120.344055a26.13661 26.13661 0 1 0 13.022046-22.759668A26.18287 26.18287 0 0 0 6.938923 120.344055zM4.371522 222.64691A28.704012 28.704012 0 1 0 33.075533 193.942898 28.704012 28.704012 0 0 0 4.417781 222.64691zM0 450.821829a32.381641 32.381641 0 1 0 32.381641-32.381641 32.381641 32.381641 0 0 0-32.381641 32.381641z m0 136.164799a32.381641 32.381641 0 1 0 32.381641-32.381641 32.381641 32.381641 0 0 0-32.381641 32.381641z m0 145.000362a32.381641 32.381641 0 1 0 32.381641-32.381641 32.381641 32.381641 0 0 0-32.381641 32.381641z m0 138.362125a32.381641 32.381641 0 1 0 32.381641-32.381641 32.381641 32.381641 0 0 0-32.381641 32.381641z m1785.616191-542.808819a32.381641 32.381641 0 1 0 32.381641-32.38164 32.381641 32.381641 0 0 0-32.381641 32.38164zM949.105891 731.98699a55.210698 55.210698 0 1 0 27.616913-47.80918 55.210698 55.210698 0 0 0-27.616913 47.80918z m23.916155 260.556559a30.924467 30.924467 0 1 0 15.404409-26.923021 30.924467 30.924467 0 0 0-15.404409 26.923021zM264.97434 120.344055a25.026382 25.026382 0 1 0 12.466932-21.811348 25.003253 25.003253 0 0 0-12.466932 21.811348z m-2.312974 102.672931a27.246838 27.246838 0 1 0 27.246838-27.223708 27.269967 27.269967 0 0 0-27.154319 27.223708z m144.630286 0A27.246838 27.246838 0 1 0 420.96133 199.447777a27.246838 27.246838 0 0 0-13.577159 23.569209z m1131.044452-102.672931a25.026382 25.026382 0 1 0 25.003253-25.026382 25.003253 25.003253 0 0 0-25.026383 25.026382z m132.093965-95.687749A24.656306 24.656306 0 1 0 1695.086375 0a24.656306 24.656306 0 0 0-24.656306 24.656306z m121.801228 95.687749a26.13661 26.13661 0 1 0 26.13661-26.13661 26.13661 26.13661 0 0 0-26.13661 26.13661zM1535.814962 223.016986a27.616914 27.616914 0 1 0 27.593784-27.593784A27.593784 27.593784 0 0 0 1535.814962 223.016986z m-143.149982 0A27.593784 27.593784 0 1 0 1420.166245 195.423202a27.593784 27.593784 0 0 0-27.593784 27.593784z m397.091435-0.370076a28.704012 28.704012 0 1 0 28.704011-28.704012 28.680882 28.680882 0 0 0-28.79653 28.704012z m-4.417781 228.174919a32.381641 32.381641 0 1 0 32.381641-32.381641 32.381641 32.381641 0 0 0-32.47416 32.381641z m0 136.164799a32.381641 32.381641 0 1 0 32.381641-32.381641 32.381641 32.381641 0 0 0-32.47416 32.381641z m0 145.000362a32.381641 32.381641 0 1 0 32.381641-32.381641 32.381641 32.381641 0 0 0-32.47416 32.381641z m0 138.362125a32.381641 32.381641 0 1 0 32.381641-32.381641 32.381641 32.381641 0 0 0-32.47416 32.381641z m-121.084207 122.58764a30.924467 30.924467 0 1 0 30.924467-30.924467 30.901337 30.901337 0 0 0-31.016986 30.901337z m-131.839537 0a30.924467 30.924467 0 1 0 30.901337-30.924467 30.901337 30.901337 0 0 0-30.901337 30.901337z m-143.149982 0a30.924467 30.924467 0 1 0 15.404409-26.923022 30.924467 30.924467 0 0 0-15.404409 26.899892z m-138.385255 0a30.924467 30.924467 0 1 0 15.404409-26.923022 30.970726 30.970726 0 0 0-15.404409 26.899892z m-135.054572 0a30.924467 30.924467 0 1 0 30.901338-30.924467 30.901337 30.901337 0 0 0-30.901338 30.901337z m-154.576075-122.58764a42.697506 42.697506 0 1 0 42.697506-42.674377 42.697506 42.697506 0 0 0-42.697506 42.674377z m148.677991-542.808819a36.452476 36.452476 0 1 0 36.429346-36.429346 36.429346 36.429346 0 0 0-36.429346 36.429346z m135.424647 0a36.452476 36.452476 0 1 0 18.226238-31.572099 36.429346 36.429346 0 0 0-18.226238 31.572099z m413.282256 0a36.452476 36.452476 0 1 0 18.272497-31.572099 36.429346 36.429346 0 0 0-18.272497 31.572099z m-131.839538 0a36.452476 36.452476 0 1 0 18.272497-31.54897 36.429346 36.429346 0 0 0-18.179978 31.54897z m-143.149982 0a36.429346 36.429346 0 1 0 18.203108-31.572099 36.406216 36.406216 0 0 0-18.110589 31.572099z m-415.849656 0a36.429346 36.429346 0 1 0 18.203108-31.572099 36.406216 36.406216 0 0 0-18.110589 31.572099z m689.659559 122.58764a37.539574 37.539574 0 1 0 18.758222-32.520419 37.539574 37.539574 0 0 0-18.665703 32.47416z m0 136.465486a37.539574 37.539574 0 1 0 18.758222-32.520419 37.539574 37.539574 0 0 0-18.665703 32.543549z m0 145.370438a37.539574 37.539574 0 1 0 18.758222-32.520419 37.539574 37.539574 0 0 0-18.665703 32.543549z m0 138.362125a37.539574 37.539574 0 1 0 18.758222-32.381641 37.539574 37.539574 0 0 0-18.665703 32.404771z m7.355258-647.332129a30.068666 30.068666 0 1 0 15.034333-26.275388 30.068666 30.068666 0 0 0-14.941814 26.298518z m0-102.672931a30.068666 30.068666 0 1 0 15.034333-26.275388 30.068666 30.068666 0 0 0-14.941814 26.298518z m-144.167691 750.02819a42.697506 42.697506 0 1 0 21.348754-37.00759 42.674377 42.674377 0 0 0-21.348754 37.00759z m-7.355258-138.362125a49.682689 49.682689 0 1 0 49.682689-49.682689 49.682689 49.682689 0 0 0-49.682689 49.682689z m0.370076-145.370438a49.682689 49.682689 0 1 0 49.659559-49.682689 49.636429 49.636429 0 0 0-49.659559 49.682689z m-136.187929 283.732563A42.697506 42.697506 0 1 0 1420.166245 827.674738a42.697506 42.697506 0 0 0-42.697506 42.674377z m-6.938923-138.362125A49.682689 49.682689 0 1 0 1420.166245 682.304301a49.682689 49.682689 0 0 0-49.682689 49.682689z m0-145.370438A49.682689 49.682689 0 1 0 1420.166245 536.933863a49.682689 49.682689 0 0 0-49.682689 49.682689z m-131.376943 283.732563a42.697506 42.697506 0 1 0 21.418143-36.845682 42.674377 42.674377 0 0 0-21.464402 36.845682z m-6.938923-138.362125a49.682689 49.682689 0 1 0 49.682689-49.682689 49.682689 49.682689 0 0 0-49.775208 49.682689z m0-145.370438a49.682689 49.682689 0 1 0 49.682689-49.682689 49.682689 49.682689 0 0 0-49.775208 49.682689z m-128.531984 283.732563a42.697506 42.697506 0 1 0 42.674377-42.674377 42.674377 42.674377 0 0 0-42.674377 42.674377z m-6.938923-138.362125a49.682689 49.682689 0 1 0 49.682689-49.682689 49.682689 49.682689 0 0 0-49.752078 49.682689z m0-145.370438a49.682689 49.682689 0 1 0 49.682689-49.682689 49.682689 49.682689 0 0 0-49.752078 49.682689z m421.747741-136.465486a44.917962 44.917962 0 1 0 44.894832-44.894832 44.894832 44.894832 0 0 0-44.964221 44.825443z m-143.149982 0a44.894832 44.894832 0 1 0 22.435851-38.881099 44.941091 44.941091 0 0 0-22.50524 38.81171z m-138.362125 0a44.894832 44.894832 0 1 0 22.366462-39.066136 44.894832 44.894832 0 0 0-22.435851 38.996747z m-135.447777 0a44.917962 44.917962 0 1 0 22.458981-38.881099 44.917962 44.917962 0 0 0-22.52837 38.81171z m-142.039754 0a44.894832 44.894832 0 1 0 22.435851-38.881099 44.941091 44.941091 0 0 0-22.505241 38.81171z m-10.315866 136.465486a55.210698 55.210698 0 1 0 27.616914-47.809179 55.164438 55.164438 0 0 0-27.686303 47.809179z" p-id="48828" data-spm-anchor-id="a313x.7781069.0.i106" class="" fill="#1273E1"></path></svg>