<?xml version="1.0" standalone="no"?><!DOCTYPE svg PUBLIC "-//W3C//DTD SVG 1.1//EN" "http://www.w3.org/Graphics/SVG/1.1/DTD/svg11.dtd"><svg t="1620133212311" class="icon" viewBox="0 0 1024 1024" version="1.1" xmlns="http://www.w3.org/2000/svg" p-id="34313" id="mx_n_1620133212312" data-spm-anchor-id="a313x.7781069.0.i60" xmlns:xlink="http://www.w3.org/1999/xlink" width="128" height="128"><defs><style type="text/css"></style></defs><path d="M144.761 615.17c0 100.276 130.573 181.616 291.663 181.616 161.075 0 291.65-81.34 291.65-181.615 0-100.307-130.575-181.627-291.65-181.627-161.09 0-291.663 81.32-291.663 181.627" fill="#FFFFFF" p-id="34314" data-spm-anchor-id="a313x.7781069.0.i63" class=""></path><path d="M436.42 812.934c-169.727 0-307.812-88.717-307.812-197.765s138.085-197.77 307.813-197.77c169.717 0 307.802 88.721 307.802 197.77S606.138 812.934 436.421 812.934z m0-363.241c-151.918 0-275.516 74.23-275.516 165.476 0 91.24 123.598 165.47 275.517 165.47s275.506-74.23 275.506-165.47c0-91.245-123.587-165.476-275.506-165.476z" fill="#885F44" p-id="34315"></path><path d="M728.373 471.266c-12.128-3.64-20.445-6.11-14.085-22.047 13.75-34.594 15.178-64.444 0.26-85.732-27.958-39.95-104.45-37.785-192.128-1.078 0-0.048-27.53 12.046-20.498-9.794 13.493-43.354 11.46-79.678-9.53-100.638-47.574-47.603-174.071 1.796-282.544 110.239C128.611 443.47 81.441 529.57 81.441 604.025c0 142.415 182.628 229.003 361.295 229.003 234.222 0 390.024-136.084 390.024-244.126 0-65.276-54.985-102.32-104.387-117.636zM443.215 781.983c-142.568 14.068-265.636-50.376-274.898-143.984-9.26-93.585 98.846-180.87 241.398-194.967 142.584-14.097 265.658 50.349 274.9 143.915 9.246 93.637-98.812 180.93-241.4 195.036z" fill="#FF713C" p-id="34316" data-spm-anchor-id="a313x.7781069.0.i62" class=""></path><path d="M442.739 849.176c-185.54 0-377.449-91.697-377.449-245.151 0-77.427 47.286-167.358 133.143-253.225 80.874-80.854 176.225-133.097 242.938-133.097 25.903 0 47.497 7.906 62.435 22.855 22.98 22.938 28.742 59.113 16.884 105.095 44.363-18.071 86.078-27.601 120.907-27.601 39.822 0 69.615 12.51 86.182 36.179 17.556 25.068 18.134 58.877 1.703 100.485 1.167 0.374 2.397 0.741 3.48 1.068 72.674 22.529 115.944 72.27 115.944 133.116 0.002 122.865-173.699 260.276-406.167 260.276zM441.372 250c-58.587 0-144.98 48.532-220.105 123.635-79.76 79.77-123.681 161.591-123.681 230.39 0 133.24 175.488 212.857 345.154 212.857 231.637 0 373.874-132.781 373.874-227.979 0-68.085-71.203-95.45-93.027-102.215-8.81-2.644-19.87-5.97-25.125-16.873-5.351-11.085-0.694-22.749 0.83-26.581 8.485-21.346 15.738-50.919 2.03-70.477-12.962-18.524-39.633-22.408-59.723-22.408-31.77 0-70.824 9.32-112.949 26.96l-3.006 1.262-0.284-0.005c-4.752 1.693-10.797 3.29-16.715 3.29-11.302 0-17.21-5.786-19.723-9.234-4.783-6.571-5.582-14.965-2.364-24.958 12.026-38.665 10.06-68.642-5.572-84.259-8.896-8.9-22.226-13.405-39.614-13.405zM404.326 800.06c-136.865 0-242.876-67.492-252.085-160.477-5.025-50.85 19.723-101.08 69.7-141.439 48.022-38.776 114.147-64.059 186.19-71.18a413.924 413.924 0 0 1 40.548-2.014c136.844 0 242.822 67.46 252.01 160.409 10.092 102.32-104.696 197.733-255.89 212.693a414.026 414.026 0 0 1-40.473 2.008z m44.353-342.814c-12.332 0-24.916 0.625-37.373 1.855-65.852 6.513-125.9 29.3-169.076 64.17-41.231 33.293-61.773 73.473-57.841 113.132 7.4 74.888 101.963 131.362 219.936 131.362 12.32 0 24.862-0.625 37.3-1.85 133.469-13.204 235.274-92.78 226.916-177.38-7.39-74.847-101.91-131.289-219.862-131.289z" fill="#885F44" p-id="34317" data-spm-anchor-id="a313x.7781069.0.i61" class=""></path><path d="M883.91 210.64c-56.563-62.71-139.993-86.617-216.999-70.244h-0.032c-17.82 3.813-29.18 21.345-25.363 39.13 3.798 17.801 21.322 29.176 39.142 25.377 54.784-11.633 114.071 5.382 154.279 49.93 40.172 44.543 51.084 105.301 33.879 158.562l0.009 0.01c-5.607 17.35 3.884 35.91 21.254 41.518 17.3 5.603 35.9-3.875 41.514-21.183 0-0.032 0-0.099 0.01-0.127 24.138-74.92 8.888-160.326-47.693-222.974" fill="#F7D11E" p-id="34318"></path><path d="M900.242 472.685h-0.01c-5.13 0-10.219-0.81-15.127-2.397-12.49-4.037-22.666-12.689-28.648-24.363-5.97-11.674-7.043-24.983-3.006-37.477 15.979-49.495 4.288-104.213-30.508-142.8-27.617-30.597-67.134-48.148-108.417-48.148a147.178 147.178 0 0 0-30.508 3.2 49.21 49.21 0 0 1-10.26 1.083c-23.013 0-43.22-16.352-48.034-38.881-2.755-12.815-0.337-25.945 6.812-36.963 7.139-11.012 18.134-18.586 30.96-21.336l1.745-0.357a245.785 245.785 0 0 1 49.315-5.004c69.058 0 135.151 29.373 181.355 80.58 57.61 63.796 77.363 154.132 51.827 236.32v0.153l-0.788 2.428c-6.592 20.31-25.356 33.962-46.708 33.962z m-185.717-287.48c50.408 0 98.662 21.434 132.397 58.813 42.503 47.118 56.78 113.92 37.268 174.342-2.86 8.837 2.007 18.345 10.849 21.2 8.116 2.627 16.936-1.415 20.405-8.81v-0.09l1.146-2.99c22.802-70.904 5.835-150.3-44.658-206.207-40.085-44.442-97.453-69.926-157.376-69.926a213.433 213.433 0 0 0-44.29 4.652l-0.44 0.094a16.757 16.757 0 0 0-10.187 7.223c-2.45 3.769-3.28 8.253-2.335 12.636 1.892 8.893 10.923 14.844 19.996 12.972a179.222 179.222 0 0 1 37.225-3.91z" fill="#885F44" p-id="34319"></path><path d="M797.05 289.026c-27.528-30.543-68.18-42.142-105.702-34.164-15.336 3.267-25.11 18.362-21.822 33.711 3.28 15.285 18.362 25.106 33.661 21.777v0.032c18.343-3.877 38.233 1.778 51.69 16.68 13.472 14.934 17.093 35.28 11.313 53.134h0.031c-4.808 14.9 3.35 30.925 18.265 35.753 14.919 4.776 30.923-3.357 35.737-18.297 11.79-36.49 4.412-78.09-23.173-108.626" fill="#F7D11E" p-id="34320"></path><path d="M793.191 433.467c-4.615 0-9.198-0.72-13.624-2.133-23.39-7.575-36.248-32.727-28.721-56.09 4.173-12.973 1.135-27.291-7.958-37.368-8.978-9.94-23.212-14.465-36.353-11.695l-19.491 4.126v-4.347c-16.37-3.9-29.657-17.01-33.305-33.993-2.492-11.654-0.305-23.57 6.17-33.562 6.466-9.987 16.432-16.852 28.07-19.333a128.1 128.1 0 0 1 26.64-2.802c35.984 0 70.403 15.29 94.425 41.952 30.319 33.556 40.496 81.232 26.545 124.402-5.95 18.443-22.992 30.843-42.398 30.843zM719.34 293.211c18.177 1.24 35.28 9.477 47.529 23.023 16.788 18.624 22.413 45.032 14.696 68.932-2.06 6.413 1.482 13.346 7.895 15.423 6.182 1.97 13.373-1.614 15.39-7.885 10.419-32.242 2.84-67.812-19.784-92.854-22.382-24.847-57.62-36.174-90.367-29.194a12.12 12.12 0 0 0-7.685 5.304 12.2 12.2 0 0 0-1.693 9.23c1.378 6.439 7.907 10.78 14.444 9.383l19.575-4.258v2.896z" fill="#885F44" p-id="34321"></path><path d="M457.462 515.068c-67.842-17.65-144.523 16.16-173.99 75.937-30.011 60.968-0.992 128.645 67.552 150.768 70.998 22.897 154.685-12.188 183.78-78 28.696-64.326-7.132-130.559-77.342-148.705z m-51.804 155.695c-13.791 22.001-43.32 31.642-65.561 21.486-21.922-9.981-28.393-35.531-14.6-56.986 13.622-21.362 42.16-30.879 64.234-21.623 22.338 9.519 29.468 34.905 15.927 57.123z m45.429-58.304c-4.987 8.521-16.009 12.625-24.646 9.07-8.49-3.493-11.152-13.03-6.327-21.406 4.967-8.334 15.56-12.402 24.03-9.04 8.608 3.146 11.701 12.79 6.943 21.376z" fill="#FF713C" p-id="34322"></path><path d="M396.284 764.928h-0.01c-17.295 0-34.188-2.623-50.199-7.785-38.15-12.315-67.018-37.651-81.284-71.35-13.708-32.38-12.227-68.575 4.194-101.92 26.43-53.615 87.277-89.631 151.425-89.631 14.024 0 27.869 1.75 41.126 5.198 39.664 10.256 71.697 35.354 87.844 68.853 15.307 31.748 15.37 67.997 0.18 102.057-25.011 56.547-86.615 94.578-153.276 94.578z m24.126-238.392c-52.132 0-101.342 28.779-122.452 71.607-12.205 24.795-13.425 51.449-3.427 75.06 10.554 24.921 32.38 43.817 61.458 53.205 12.804 4.126 26.355 6.224 40.284 6.224h0.01c53.237 0 104.13-30.997 123.756-75.387 11.28-25.288 11.364-51.886 0.253-74.93-12.016-24.925-36.385-43.738-66.86-51.617-10.63-2.764-21.732-4.162-33.022-4.162z m-61.142 185.902c-9.178 0-17.882-1.85-25.882-5.498-14.444-6.581-24.789-18.318-29.12-33.057-4.552-15.454-1.756-32.71 7.653-47.35 12.794-20.074 35.701-32.573 59.744-32.573 8.557 0 16.736 1.608 24.316 4.788a59.389 59.389 0 0 1 6.339 3.159 33.933 33.933 0 0 1 3.806-9.846c9.009-15.149 28.426-22.165 43.984-15.985 7.895 2.881 14.414 9.294 17.452 17.435 3.196 8.563 2.334 18.324-2.355 26.781-7.6 13.015-23.086 20.448-37.288 18.277 2.229 13.451-0.715 27.88-8.463 40.6-12.722 20.28-36.302 33.27-60.186 33.27z m12.395-86.184c-12.92 0-25.693 6.944-32.548 17.688-4.436 6.901-5.792 14.281-3.869 20.825 1.671 5.688 5.666 10.109 11.543 12.783 3.764 1.725 7.959 2.591 12.478 2.591 13.036 0 25.873-7.048 32.716-17.955 4.258-6.997 5.508-14.56 3.395-21.126-1.808-5.655-5.95-10.002-11.974-12.568-3.521-1.475-7.505-2.238-11.741-2.238z" fill="#885F44" p-id="34323" data-spm-anchor-id="a313x.7781069.0.i64" class=""></path></svg>