<?xml version="1.0" standalone="no"?><!DOCTYPE svg PUBLIC "-//W3C//DTD SVG 1.1//EN" "http://www.w3.org/Graphics/SVG/1.1/DTD/svg11.dtd"><svg t="1620133013258" class="icon" viewBox="0 0 1250 1024" version="1.1" xmlns="http://www.w3.org/2000/svg" p-id="20219" xmlns:xlink="http://www.w3.org/1999/xlink" width="156.25" height="128"><defs><style type="text/css"></style></defs><path d="M1230.8 644.4c0-79.066667-35.333333-155.466667-99.333333-215.2-64.933333-59.6-148-95.6-235.866667-102.666667 0-1.333333-0.133333-2.666667-0.4-4.133333C857.866667 148.133333 670.8 16.666667 460 16.666667c-238.266667 0-432.133333 166.666667-432.133333 371.066666 0 108.933333 55.466667 207.6 160.266666 285.333334l-36 108.266666c-2.8 8.266667-0.266667 17.466667 6.266667 23.333334 6.666667 5.6 16.133333 6.8 24 3.066666l136.8-68.4 16.4 3.333334c42.4 8.666667 79.066667 16.266667 124.266667 16.266666 13.2 0 26.666667-0.533333 40.266666-1.733333 4.266667-0.4 8.266667-2 11.6-4.666667 53.066667 126.8 192.666667 211.6 349.066667 211.6 39.866667 0 79.6-9.066667 120.133333-19.2l105.066667 57.466667c7.733333 4.266667 17.2 3.466667 24-2.133333 6.933333-5.466667 9.733333-14.666667 7.2-23.066667L1090.666667 888.8c90.266667-72.133333 140.133333-158.933333 140.133333-244.4z" fill="#18B8A1" p-id="20220"></path><path d="M1044.666667 886.933333l15.6 51.866667-66.266667-36.133333c-3.2-1.733333-6.8-2.666667-10.4-2.666667-1.733333 0-3.6 0.266667-5.333333 0.666667-38.666667 9.733333-78.666667 19.866667-117.733334 19.866666-180.533333 0-327.466667-123.866667-327.466666-276.133333 0-152.266667 146.933333-276.133333 327.733333-276.133333 177.066667 0 326.8 126.4 326.8 276.133333 0 75.866667-47.866667 153.6-135.066667 218.933333-7.333333 5.333333-10.533333 14.8-7.866666 23.6z" fill="#CFF9F2" p-id="20221"></path><path d="M234.4 671.6c3.066667-9.066667-0.266667-19.2-8.133333-24.666667C123.466667 575.333333 71.2 488.133333 71.2 387.733333 71.2 207.2 245.733333 60.533333 460 60.533333c187.733333 0 354.8 113.6 391.2 264.8-199.6 4.266667-361.466667 146.8-361.466667 319.066667 0.133333 23.333333 3.2 46.666667 9.066667 69.2h-2.4c-12 1.066667-24.266667 1.6-36.533333 1.6-41.333333 0-76-7.2-116-15.466667l-23.466667-4.8c-4.666667-0.933333-9.6-0.266667-14 1.866667L210.133333 745.333333l24.266667-73.733333z" fill="#CFF9F2" p-id="20222"></path><path d="M262.4 297.733333c0 21.733333 11.6 41.866667 30.4 52.8 18.8 10.933333 42.133333 10.933333 60.933333 0 18.8-10.933333 30.533333-31.066667 30.533334-52.8s-11.6-41.866667-30.533334-52.8c-18.8-10.933333-42.133333-10.933333-60.933333 0-18.666667 10.933333-30.4 31.066667-30.4 52.8z m0 0M549.733333 297.733333c0 21.733333 11.6 41.866667 30.4 52.8 18.8 10.933333 42.133333 10.933333 60.933334 0 18.8-10.933333 30.4-31.066667 30.4-52.8s-11.6-41.866667-30.4-52.8c-18.8-10.933333-42.133333-10.933333-60.933334 0-18.8 10.933333-30.4 31.066667-30.4 52.8z m0 0M694.933333 602.533333c0 19.2 10.266667 37.066667 26.933334 46.666667 16.666667 9.6 37.2 9.6 53.866666 0s26.933333-27.466667 26.933334-46.666667c0-19.2-10.266667-37.066667-26.933334-46.666666-16.666667-9.6-37.2-9.6-53.866666 0s-26.933333 27.466667-26.933334 46.666666z m0 0M918.266667 602.533333c0 19.2 10.266667 37.066667 26.933333 46.666667 16.666667 9.6 37.2 9.6 53.866667 0s26.933333-27.466667 26.933333-46.666667c0-19.2-10.266667-37.066667-26.933333-46.666666-16.666667-9.6-37.2-9.6-53.866667 0s-26.933333 27.466667-26.933333 46.666666z m0 0" fill="#18B8A1" p-id="20223"></path></svg>