<?xml version="1.0" standalone="no"?><!DOCTYPE svg PUBLIC "-//W3C//DTD SVG 1.1//EN" "http://www.w3.org/Graphics/SVG/1.1/DTD/svg11.dtd"><svg t="1620133761901" class="icon" viewBox="0 0 1024 1024" version="1.1" xmlns="http://www.w3.org/2000/svg" p-id="47808" xmlns:xlink="http://www.w3.org/1999/xlink" width="128" height="128"><defs><style type="text/css"></style></defs><path d="M335.596639 421.647059h64.537815v176.403361H335.596639zM676.356303 607.946218L576.064538 507.697479l93.837983-93.794958 45.606723 45.606723-48.14521 48.188235 54.598991 54.642017z" fill="#3C77FE" p-id="47809"></path><path d="M879.865546 482.570756v56.104874c0 60.622521-4.431597 123.740504-57.567731 171.197311-54.25479 48.446387-150.803361 71.034622-303.844033 71.034622-44.01479 0-83.468908-1.850084-118.74958-5.593277l-40.486723-70.862521c40.916975 7.615462 93.020504 11.917983 159.236303 11.917983 134.367731 0 219.729748-17.855462 260.861848-54.642017 30.289748-27.019832 36.012101-64.107563 36.012101-123.052101v-56.104874c0-56.492101-5.808403-92.203025-36.313277-118.964706-24.223193-21.254454-63.333109-36.098151-118.233278-44.703193l-44.617142-70.088067c97.19395 8.002689 163.495798 29.601345 205.359327 66.258823 53.824538 47.198655 58.342185 111.220168 58.342185 167.497143z" fill="#3C77FE" p-id="47810"></path><path d="M616.164034 248.81479l44.617142 70.088067C622.015462 312.793277 575.41916 309.781513 520.605042 309.781513c-311.932773 0-311.932773 99.861513-311.932773 172.789243v56.104874c0 65.48437 0 137.852773 150.54521 165.776135l40.486723 70.862521c-87.728403-9.336471-149.55563-30.461849-190.687731-64.666891-57.008403-47.413782-64.882017-110.66084-64.882017-171.971765v-56.104874c0-101.238319 36.399328-143.187899 68.108907-168.443697C271.230924 267.143529 369.199328 245.243697 520.605042 245.243697c34.721345 0 66.516975 1.161681 95.558992 3.571093z" fill="#E43A3F" p-id="47811"></path><path d="M645.378151 959.462185c17.812437 0 32.268908 14.456471 32.268908 32.268907s-14.456471 32.268908-32.268908 32.268908h-135.529412v-64.537815H645.378151z" fill="#3C77FE" p-id="47812"></path><path d="M509.848739 959.462185v64.537815H370.016807c-17.812437 0-32.268908-14.456471-32.268908-32.268908s14.456471-32.268908 32.268908-32.268907h139.831932z" fill="#E23635" p-id="47813"></path></svg>