<?xml version="1.0" standalone="no"?><!DOCTYPE svg PUBLIC "-//W3C//DTD SVG 1.1//EN" "http://www.w3.org/Graphics/SVG/1.1/DTD/svg11.dtd"><svg t="1620132243791" class="icon" viewBox="0 0 1529 1024" version="1.1" xmlns="http://www.w3.org/2000/svg" p-id="3145" xmlns:xlink="http://www.w3.org/1999/xlink" width="191.125" height="128"><defs><style type="text/css"></style></defs><path d="M1310.50923456 219.05067712h115.37084419a28.66695184 28.66695184 0 0 1 28.71352068 28.71502191 28.66695184 28.66695184 0 0 1-28.71352068 28.71502194h-115.37084419v-57.43004385z" p-id="3146" fill="#0099D9"></path><path d="M1310.50923456 392.36382501h115.37084419c15.89503794 0 28.71352068 12.81848275 28.71352068 28.71502194s-12.81848275 28.71352068-28.71352068 28.71351855h-115.37084419v-57.42854049z" p-id="3147" fill="#0099D9"></path><path d="M1310.50923456 565.67697294h115.37084419a28.66695184 28.66695184 0 0 1 28.71352068 28.71351855 28.66695184 28.66695184 0 0 1-28.71352068 28.71502193h-115.37084419v-57.43004391z" p-id="3148" fill="#0099D9"></path><path d="M1310.50923456 738.99011869h115.37084419a28.66695184 28.66695184 0 0 1 28.71352068 28.7135207 28.66695184 28.66695184 0 0 1-28.71352068 28.71502192h-115.37084419v-57.43004384z" p-id="3149" fill="#0099D9"></path><path d="M97.83246358 219.05067712h115.37084638v57.94230371h-115.37084638a28.66695184 28.66695184 0 0 1-28.7135185-28.71502409c-0.51376109-16.40729563 12.30622289-29.22727963 28.7135185-29.22727962z" p-id="3150" fill="#0099D9"></path><path d="M97.83246358 392.36382501h115.37084638v57.94080032h-115.37084638c-15.89503794 0-28.71352068-12.81848275-28.7135185-28.71352069s12.30622289-29.22727963 28.7135185-29.22727963z" p-id="3151" fill="#0099D9"></path><path d="M97.83246358 565.67697294h115.37084638v57.43004386h-115.37084638a28.66695184 28.66695184 0 0 1-28.7135185-28.71652531c-0.51376109-15.8935367 12.30622289-28.71352068 28.7135185-28.71351855z" p-id="3152" fill="#0099D9"></path><path d="M97.83246358 738.99011869h115.37084638v57.9408025h-115.37084638a28.66695184 28.66695184 0 0 1-28.7135185-28.7150219c-0.51376109-16.40729563 12.30622289-29.22727963 28.7135185-29.22728182z" p-id="3153" fill="#0099D9"></path><path d="M1248.97811796 133.42087364c0-63.58315641-51.78919119-115.37084418-115.37084638-115.3708442H384.97817921c-63.58165299 0-115.37084418 51.78768778-115.37084634 115.3708442V881.53620707c0 63.58165299 51.78919119 115.37084418 115.37084634 115.3708442h748.11533128c63.58315641 0 115.37084418-51.78919119 115.37084635-115.3708442V133.42087364h0.51376112z m-111.78203133 812.72300522H386.51645572c-34.86663106 0-60.5050978-28.20126084-60.50509781-63.06939528V474.40481342h407.12989244c5.64085266 0 10.76794638-1.02451757 15.38277807-4.10107276l184.08109428-133.83017959c11.2817053 5.12709155 23.58642698 8.71590659 36.91866866 8.71590659 47.68661506 0 86.65582226-38.45694733 86.65582445-86.65582225 0-47.68661506-38.96920724-86.65582226-86.65582445-86.65582444-47.68661506 0-86.65582226 38.96920724-86.65582222 86.65582444 0 15.38278023 4.10107275 29.22727963 10.76794637 41.5335025l-169.21057178 123.06223542H326.01135791V132.39485485c0-34.86663106 25.63696333-63.06939527 60.50509781-63.06939529h750.67963091c34.86663106 0 60.5050978 28.20126084 60.50509783 63.06939529v408.66967015H790.57129419c-5.64085266 0-11.2817053 1.02451757-15.38278024 4.10107275l-184.08109214 134.34394071c-11.2817053-5.12859498-23.58642698-8.71740999-36.9186708-8.71740785-47.68661506 0-86.65582226 38.45694733-86.6558223 86.65582226 0 47.68661506 38.96920724 86.65732567 86.6558223 86.65732567 47.68661506 0 86.65582226-38.97070846 86.65582223-86.65732567 0-15.38278023-4.10107275-29.22727963-10.76794423-41.53350469l169.21057179-123.0622332h398.41398366v290.73452847c0 34.3558746-25.63696333 62.55713759-60.50509783 62.55713541z" p-id="3154" fill="#0099D9"></path></svg>