<?xml version="1.0" standalone="no"?><!DOCTYPE svg PUBLIC "-//W3C//DTD SVG 1.1//EN" "http://www.w3.org/Graphics/SVG/1.1/DTD/svg11.dtd"><svg t="1620133351391" class="icon" viewBox="0 0 1024 1024" version="1.1" xmlns="http://www.w3.org/2000/svg" p-id="37033" xmlns:xlink="http://www.w3.org/1999/xlink" width="128" height="128"><defs><style type="text/css"></style></defs><path d="M576 864H84a52.06 52.06 0 0 1-52-52V212a52.06 52.06 0 0 1 52-52h856a52.06 52.06 0 0 1 52 52v236a32 32 0 0 1-64 0V224H96v576h480a32 32 0 0 1 0 64z" fill="#333333" p-id="37034"></path><path d="M64 320h896v64H64zM512 544H192a32 32 0 0 1 0-64h320a32 32 0 0 1 0 64zM384 704H192a32 32 0 0 1 0-64h192a32 32 0 0 1 0 64z" fill="#333333" p-id="37035"></path><path d="M800 888a216 216 0 1 1 152.73-63.27A214.59 214.59 0 0 1 800 888z m0-384c-92.64 0-168 75.36-168 168s75.36 168 168 168 168-75.36 168-168-75.36-168-168-168z" fill="#1273E1" p-id="37036"></path><path d="M800 673.94l-80.97-80.97 33.94-33.94L800 606.06l47.03-47.03 33.94 33.94L800 673.94z" fill="#1273E1" p-id="37037"></path><path d="M720 648h160v48H720zM720 712h160v48H720z" fill="#1273E1" p-id="37038"></path><path d="M776 672h48v128h-48z" fill="#1273E1" p-id="37039"></path></svg>